<svg xmlns="http://www.w3.org/2000/svg" width="381.802" height="41" viewBox="0 0 381.802 41">
  <g id="Group_333" data-name="Group 333" transform="translate(1269.319 5009)">
    <path id="Path_92" data-name="Path 92" d="M15.136,0a29.143,29.143,0,0,1-.528-6.468v-9.02c0-4.928-1.848-7.392-6.512-7.392-4.312,0-6.556,2.508-6.556,6.864v.572h4.4v-.836c0-1.672.66-2.6,2.112-2.6,1.32,0,1.892.748,1.892,2.552v.44c0,1.232-.44,1.628-3.652,3.212C2.332-10.736.88-8.712.88-5.192.88-1.716,2.772.44,5.764.44a4.858,4.858,0,0,0,4.752-3.08A8.981,8.981,0,0,0,10.868,0ZM7.524-3.564c-1.32,0-1.98-.836-1.98-2.42A3.95,3.95,0,0,1,7.656-9.46a10.767,10.767,0,0,0,2.288-1.672V-7.3C9.944-4.84,9.108-3.564,7.524-3.564ZM18.172,0h4.664V-30.8H18.172ZM34.8-25.784v3.344H32.252v3.96H34.8V0h4.664V-18.48h3.388v-3.96H39.468v-2.728c0-1.408.484-1.936,1.8-1.936a5.416,5.416,0,0,1,1.584.264V-30.8a6.759,6.759,0,0,0-2.552-.44C36.608-31.24,34.8-29.436,34.8-25.784Zm10.34-4.532v5.1h4.664v-5.1ZM45.144,0h4.664V-22.44H45.144Zm21.6,0a29.143,29.143,0,0,1-.528-6.468v-9.02c0-4.928-1.848-7.392-6.512-7.392-4.312,0-6.556,2.508-6.556,6.864v.572h4.4v-.836c0-1.672.66-2.6,2.112-2.6,1.32,0,1.892.748,1.892,2.552v.44c0,1.232-.44,1.628-3.652,3.212-3.96,1.936-5.412,3.96-5.412,7.48,0,3.476,1.892,5.632,4.884,5.632a4.858,4.858,0,0,0,4.752-3.08A8.981,8.981,0,0,0,62.48,0ZM59.136-3.564c-1.32,0-1.98-.836-1.98-2.42A3.95,3.95,0,0,1,59.268-9.46a10.767,10.767,0,0,0,2.288-1.672V-7.3C61.556-4.84,60.72-3.564,59.136-3.564ZM78.408-22.88a4.656,4.656,0,0,0-4.488,3.036l-.088-2.6H69.784V0h4.664V-15.136c0-2.684,1.056-3.608,2.376-3.608,1.408,0,1.936,1.012,1.936,2.948V0h4.664V-16.324C83.424-20.944,81.532-22.88,78.408-22.88ZM93.28.44c4.488,0,6.644-2.816,6.644-7.216v-1.8H95.436v2.244c0,1.672-.572,2.64-2.156,2.64s-2.156-.968-2.156-2.64V-16.1c0-1.672.572-2.64,2.156-2.64s2.156.968,2.156,2.64v1.8h4.488v-1.364c0-4.4-2.156-7.216-6.644-7.216-4.444,0-6.82,2.64-6.82,7.216v8.888C86.46-2.2,88.836.44,93.28.44Zm16.06,0c4.4,0,6.864-2.64,6.864-7.3v-8.712c0-4.664-2.464-7.3-6.864-7.3s-6.864,2.64-6.864,7.3v8.712C102.476-2.2,104.94.44,109.34.44Zm0-4.136c-1.672,0-2.2-1.144-2.2-2.728v-9.592c0-1.54.484-2.728,2.2-2.728s2.2,1.188,2.2,2.728v9.592C111.54-4.84,111.012-3.7,109.34-3.7Zm16.429-9.082a7.634,7.634,0,0,0,7.714-7.98,7.634,7.634,0,0,0-7.714-7.98,7.634,7.634,0,0,0-7.714,7.98A7.634,7.634,0,0,0,125.769-12.778Zm0-1.552c-3.569,0-6.118-2.682-6.118-6.428s2.549-6.428,6.118-6.428,6.118,2.682,6.118,6.428S129.338-14.33,125.769-14.33Zm-2.438-1.685h1.685v-3.835h.665c.754,0,1.042.266,1.042,1.286v1.219a3.018,3.018,0,0,0,.155,1.33h1.729a3.068,3.068,0,0,1-.2-1.308v-1.352c0-.975-.288-1.751-1.153-2.039v-.044a2.007,2.007,0,0,0,1.153-2.061v-.2a2.178,2.178,0,0,0-2.5-2.483h-2.571Zm1.685-5.386V-23.95h.8c.643,0,.909.355.909,1.13v.288c0,.864-.4,1.13-1.02,1.13Z" transform="translate(-1021 -4974)" fill="#081722"/>
    <path id="Path_91" data-name="Path 91" d="M1.681,0h4.51V-12.3H7.749c2.05,0,2.829.861,2.829,3.526v5.248A8.826,8.826,0,0,0,10.988,0H15.58a8.452,8.452,0,0,1-.492-3.485V-8.528c0-3.239-.738-5.371-2.993-6.068v-.082c2.009-.82,2.952-2.706,2.952-5.658V-22.1c0-4.428-2.009-6.6-6.683-6.6H1.681Zm4.51-16.4v-8.2h2.05c1.6,0,2.3.9,2.3,2.952v2.214c0,2.3-1.025,3.034-2.706,3.034ZM24.723.41c4.428,0,6.847-2.624,6.847-7.216V-21.894c0-4.592-2.419-7.216-6.847-7.216s-6.847,2.624-6.847,7.216V-6.806C17.876-2.214,20.3.41,24.723.41Zm0-4.1c-1.435,0-2.337-.779-2.337-2.829V-22.181c0-2.05.9-2.829,2.337-2.829s2.337.779,2.337,2.829V-6.519C27.06-4.469,26.158-3.69,24.723-3.69ZM34.6,0H38.54V-21.73L41.9,0h3.772l3.362-21.73V0H53.3V-28.7H46.945L43.952-7.872,40.959-28.7H34.6ZM66.379,0h4.51L66.215-28.7H60.106L55.432,0h4.182l.779-5.617H65.6ZM60.967-9.512l2.009-14.473,2.05,14.473ZM73.021,0h4.018V-20.951L82.615,0h4.551V-28.7H83.148v17.179L78.6-28.7H73.021Zm34.194,0h4.715l-5.453-18.163L111.848-28.7h-4.592L101.6-16.359V-28.7h-4.51V0h4.51V-9.02l1.845-3.608Zm16.564,0h4.51l-4.674-28.7h-6.109L112.832,0h4.182l.779-5.617H123Zm-5.412-9.512,2.009-14.473,2.05,14.473ZM131.733,0h5.986l2.091-19.721L141.9,0h5.617l2.911-28.7h-3.9l-2.05,22.468L142.311-28.7h-4.92L135.218-6.232,133.168-28.7h-4.346Zm26.855.41c4.428,0,6.806-2.624,6.806-7.3,0-3.567-1.23-5.9-5-9.225-2.952-2.583-3.977-4.059-3.977-6.15,0-1.968.861-2.747,2.3-2.747s2.255.779,2.255,2.829V-20.7h4.264v-1.189c0-4.592-2.173-7.216-6.56-7.216s-6.724,2.624-6.724,7.134c0,3.28,1.271,5.658,5.043,8.979,2.952,2.583,3.936,4.059,3.936,6.437,0,2.132-.943,2.87-2.378,2.87s-2.337-.738-2.337-2.788V-8.446h-4.264v1.64C151.946-2.214,154.16.41,158.588.41ZM166.952,0h13.2V-4.1H171.79l8.364-20.582V-28.7H167.362v4.1h7.954L166.952-4.018Zm19.762,0h4.51V-12.218L196.677-28.7H192.29L189.174-18l-3.116-10.7h-4.8l5.453,16.482Zm11.972,0H202.7V-20.951L208.28,0h4.551V-28.7h-4.018v17.179L204.262-28.7h-5.576Z" transform="translate(-1271 -4973)" fill="#081722"/>
    <rect id="Rectangle_21" data-name="Rectangle 21" width="4" height="41" transform="translate(-1040 -5009)" fill="#ffd90c"/>
  </g>
</svg>
